PathFileType	4	(X/Y/Z)	/Users/niels/Desktop/University/Third Semester/Perception and Action/Exam/Gymnastics Motion Tracking/Code for Gym Tracking/Analyzed Data/Webcam_Backflip/id2_4_pure_Sports2D/id2_4_pure_Sports2D_px_person00.trc
DataRate	CameraRate	NumFrames	NumMarkers	Units	OrigDataRate	OrigDataStartFrame	OrigNumFrames
29.87551867219917	29.87551867219917	8	22	m	29.87551867219917	30	241
Frame#	Time	Hip			RHip			RKnee			RAnkle			RBigToe			RSmallToe			RHeel			LHip			LKnee			LAnkle			LBigToe			LSmallToe			LHeel			Neck			Head			Nose			RShoulder			RElbow			RWrist			LShoulder			LElbow			LWrist		
		X1	Y1	Z1	X2	Y2	Z2	X3	Y3	Z3	X4	Y4	Z4	X5	Y5	Z5	X6	Y6	Z6	X7	Y7	Z7	X8	Y8	Z8	X9	Y9	Z9	X10	Y10	Z10	X11	Y11	Z11	X12	Y12	Z12	X13	Y13	Z13	X14	Y14	Z14	X15	Y15	Z15	X16	Y16	Z16	X17	Y17	Z17	X18	Y18	Z18	X19	Y19	Z19	X20	Y20	Z20	X21	Y21	Z21	X22	Y22	Z22
30	1.0041666666666667	0.9281001384574685	-0.5416011157967904	0.0	0.9257911987864678	-0.540814971076473	0.0	0.9693541401250604	-0.6574930277283466	0.0	0.9428824954909617	-0.7737215694679224	0.0	0.9833474479124276	-0.7903377646440788	0.0	0.973139371036386	-0.7942658372350552	0.0	0.9304163811191004	-0.7908666608541383	0.0	0.9316972147256051	-0.5391145079958609	0.0	0.9676171927193725	-0.656622747042972	0.0	0.9456623116383893	-0.7652402597178646	0.0	0.9848877691132142	-0.7834219597092289	0.0	0.9837710558492327	-0.7807535572211389	0.0	0.9312370145854898	-0.7796526733175201	0.0	0.9753457979041197	-0.3982067710025948	0.0	1.032547094221004	-0.34286649192545277	0.0	1.0211591063226548	-0.3754457762931857	0.0	0.9705934604066434	-0.39788778635839345	0.0	1.0465451425821355	-0.3773313668585812	0.0	1.1152264989858653	-0.33994415860134825	0.0	0.9686081290906033	-0.40070488154416894	0.0	1.0389727610161703	-0.37941220179360363	0.0	1.1069587061215138	-0.34526468534993265	0.0
31	1.037638888888889	0.924671436729031	-0.5434831898056163	0.0	0.9222418349012206	-0.5421329062017572	0.0	0.9712624983286655	-0.6566922615674562	0.0	0.9428146598899552	-0.7728881317393385	0.0	0.9839893242414179	-0.7880110000988007	0.0	0.9739263466612837	-0.7924214886765532	0.0	0.9297852141872115	-0.7898481262169592	0.0	0.9286699904045144	-0.5404956043838082	0.0	0.9695681106726203	-0.6554231110224761	0.0	0.9463567431104623	-0.7632522218151769	0.0	0.9864826710736423	-0.7808319086312722	0.0	0.9857209352625026	-0.7779922919306252	0.0	0.9318792929889409	-0.777749729171306	0.0	0.9775022130775076	-0.40239605817686613	0.0	1.03622658985402	-0.3500955291104905	0.0	1.024325193894579	-0.383266312786432	0.0	0.9727705478931894	-0.40272053067836266	0.0	1.0509706565004304	-0.3942316243745186	0.0	1.1228351801856071	-0.36613857683067635	0.0	0.9690405126749408	-0.40499193723939914	0.0	1.0439926400242165	-0.39461780895530235	0.0	1.1151210074539493	-0.3695045197826019	0.0
32	1.0711111111111111	0.9213633254864915	-0.5476065237426041	0.0	0.9189721347033747	-0.5458132453172807	0.0	0.9731914649281175	-0.6576917658121304	0.0	0.9427679660630959	-0.7740202627948805	0.0	0.9848344561555492	-0.7874418137488143	0.0	0.9751361299050882	-0.7921606181575156	0.0	0.929524151022491	-0.7906555776270573	0.0	0.9259766695882106	-0.5442118463119253	0.0	0.9717812511797833	-0.6559733067222682	0.0	0.9470275344923843	-0.7631660491810933	0.0	0.9880522678802021	-0.7802028557140811	0.0	0.98724824189825	-0.7770251930831056	0.0	0.9325447504584283	-0.7777835319803342	0.0	0.9799974864877422	-0.40905073878607534	0.0	1.0392518188457593	-0.3586911550345085	0.0	1.027540063986583	-0.39309172220015964	0.0	0.975143143560931	-0.4104207086552601	0.0	1.0536882287703595	-0.4145962327934446	0.0	1.1276952519627592	-0.3971364781189082	0.0	0.970496960117973	-0.4118988986176394	0.0	1.0478799546869977	-0.4134649163010262	0.0	1.1206027886048922	-0.39828236301022873	0.0
33	1.1045833333333333	0.9183793035155102	-0.553804306281235	0.0	0.9162074151980071	-0.551686885473217	0.0	0.975161585240966	-0.6605939210494494	0.0	0.9427492093998195	-0.7771214838396978	0.0	0.9856846511256265	-0.7888515985785259	0.0	0.976433170279209	-0.7936638305436534	0.0	0.9295506063604845	-0.7931192174955126	0.0	0.9237070085526153	-0.550068640990479	0.0	0.9742385404666665	-0.6584447407084049	0.0	0.9476945334454806	-0.7650117811509608	0.0	0.9894099872802926	-0.781640938706095	0.0	0.9880898779408874	-0.7779808072166988	0.0	0.9331924848857917	-0.7796440075289909	0.0	0.982627408724461	-0.41796257594141617	0.0	1.0414624299020467	-0.3683554074069545	0.0	1.0305489008571578	-0.4044255633094757	0.0	0.9774250385218982	-0.42075460948672183	0.0	1.053811578665868	-0.43812406581654556	0.0	1.1287046673135575	-0.43251209938121676	0.0	0.9726529104996449	-0.4212885020057435	0.0	1.0494741637065685	-0.43570931935740526	0.0	1.1220943716381304	-0.43140748056475564	0.0
34	1.1380555555555556	0.9161479726406412	-0.5617849969931455	0.0	0.9143278529037882	-0.5594318012336793	0.0	0.9771419456404045	-0.6655127586466062	0.0	0.9428395051922709	-0.7821252509405395	0.0	0.9864422715450825	-0.7925189587413574	0.0	0.9776058677989038	-0.797209506613239	0.0	0.9298280298581517	-0.7971817608244062	0.0	0.922034754274057	-0.5577461383431335	0.0	0.9767567178056654	-0.6629709792172921	0.0	0.948390680578749	-0.7688941571342894	0.0	0.990570469184265	-0.7852823758138125	0.0	0.9883247203845055	-0.7811156670560455	0.0	0.9338906154536232	-0.7832840299874034	0.0	0.9851229720958993	-0.42841964559581286	0.0	1.042917436948685	-0.37861116425113145	0.0	1.0330946098387204	-0.4164036066781362	0.0	0.9793383791591856	-0.43297732253707766	0.0	1.0505335559462479	-0.4638975371601467	0.0	1.1246761816417694	-0.47124079623853543	0.0	0.974860426128829	-0.43243769580142	0.0	1.047631154371116	-0.46050574184532816	0.0	1.118320266291002	-0.4679939546635458	0.0
35	1.1715277777777777	0.9151832279748852	-0.571107309360594	0.0	0.9138164063684328	-0.5685762659235785	0.0	0.9790359481713773	-0.6725188234572492	0.0	0.9431340475987979	-0.7888476787558775	0.0	0.9870757771910084	-0.7985972460812352	0.0	0.9785376318278085	-0.8029916139399417	0.0	0.9303715033337447	-0.8027928457331308	0.0	0.9211501169966851	-0.5668145055827715	0.0	0.979003277419666	-0.6696534806214998	0.0	0.9490817517321289	-0.7749564872195913	0.0	0.991577632451287	-0.7912285964884074	0.0	0.9881954501573381	-0.7867175067807918	0.0	0.9346636101011079	-0.7887343194430911	0.0	0.9872448082282529	-0.4393732608010355	0.0	1.0437764778634961	-0.38886761547898163	0.0	1.0350596542543349	-0.42802169504460025	0.0	0.9807122777644818	-0.4460453250282351	0.0	1.0433038333591285	-0.4903893307443221	0.0	1.114533101214494	-0.5115343402650917	0.0	0.9763969050810877	-0.4442641423846335	0.0	1.041389695964849	-0.48638853660003994	0.0	1.1081555134813748	-0.5063462902165659	0.0
36	1.205	0.9158326496010397	-0.5811971782690243	0.0	0.9151072838866539	-0.578505116493225	0.0	0.9806932749913769	-0.6814533327515524	0.0	0.9436597512352761	-0.7969205486584514	0.0	0.9876207245608675	-0.8068382533069797	0.0	0.9791875879801176	-0.810827048360151	0.0	0.9311717980038445	-0.8097450945395952	0.0	0.9212246561598612	-0.5767255808711688	0.0	0.9806041154168103	-0.6784199561478536	0.0	0.9496549019697876	-0.7831952515765913	0.0	0.9923568135853361	-0.7992810630861561	0.0	0.9879019868629692	-0.7947775167651534	0.0	0.9354058837230839	-0.7959678058189852	0.0	0.9888792231621037	-0.4497759410352025	0.0	1.0441799840343322	-0.39853807508204314	0.0	1.03646584714782	-0.43849940547609456	0.0	0.9815100598500678	-0.4589044373984974	0.0	1.0319665185921831	-0.5156303340009522	0.0	1.097424246961491	-0.5508606960251565	0.0	0.976880603083873	-0.45572503295280015	0.0	1.0303002767283034	-0.5113445787877261	0.0	1.0907588557450496	-0.5439985450050813	0.0
37	1.2384722222222222	0.9181380071770879	-0.5913350025651994	0.0	0.9183423838368834	-0.5884755779503614	0.0	0.9819388271995493	-0.6917644636476913	0.0	0.9443557088632628	-0.8057873770554783	0.0	0.9881665991888094	-0.8164384769117619	0.0	0.9796189417780745	-0.8199992351322654	0.0	0.9321406571541341	-0.8176072473343948	0.0	0.9224762024210867	-0.5867805952787901	0.0	0.9812808133874218	-0.6887993897955191	0.0	0.9499753897863298	-0.7932398368756176	0.0	0.9927448414965162	-0.8087568149580017	0.0	0.9875554954911874	-0.8047170269846834	0.0	0.935917782498975	-0.8046954107029674	0.0	0.9900642832228226	-0.45883020670512065	0.0	1.0442298070705756	-0.40703929352597307	0.0	1.0374058386773681	-0.4473397962114793	0.0	0.9817783220337717	-0.4706026121714303	0.0	1.0168770756933738	-0.5375294572896306	0.0	1.072981211528521	-0.5862155098453457	0.0	0.9765042349762441	-0.466025700582059	0.0	1.0147378991511085	-0.5331126962819097	0.0	1.0659367139523956	-0.5779392813140644	0.0
